<mxfile host="app.diagrams.net" agent="Mozilla/5.0 (Windows NT 10.0; Win64; x64) AppleWebKit/537.36 (KHTML, like Gecko) Chrome/138.0.0.0 Safari/537.36" version="27.2.0">
  <diagram name="Page-1" id="N3W_i5L6D-qlNdrxtZVG">
    <mxGraphModel dx="2907" dy="2264" grid="1" gridSize="10" guides="1" tooltips="1" connect="1" arrows="1" fold="1" page="1" pageScale="1" pageWidth="1169" pageHeight="827" math="0" shadow="0">
      <root>
        <mxCell id="0" />
        <mxCell id="1" parent="0" />
        <mxCell id="7IlmooSSiK_K_cPt-GnD-105" style="edgeStyle=orthogonalEdgeStyle;rounded=0;orthogonalLoop=1;jettySize=auto;html=1;exitX=0.5;exitY=1;exitDx=0;exitDy=0;entryX=1;entryY=0.5;entryDx=0;entryDy=0;shape=link;" edge="1" parent="1" source="7IlmooSSiK_K_cPt-GnD-2" target="7IlmooSSiK_K_cPt-GnD-104">
          <mxGeometry relative="1" as="geometry">
            <Array as="points">
              <mxPoint x="1230" y="60" />
            </Array>
          </mxGeometry>
        </mxCell>
        <mxCell id="7IlmooSSiK_K_cPt-GnD-119" style="edgeStyle=orthogonalEdgeStyle;rounded=0;orthogonalLoop=1;jettySize=auto;html=1;exitX=1;exitY=0.5;exitDx=0;exitDy=0;entryX=1;entryY=0.5;entryDx=0;entryDy=0;endArrow=none;endFill=0;" edge="1" parent="1" source="7IlmooSSiK_K_cPt-GnD-2" target="7IlmooSSiK_K_cPt-GnD-118">
          <mxGeometry relative="1" as="geometry">
            <Array as="points">
              <mxPoint x="1290" y="-280" />
              <mxPoint x="1430" y="-280" />
              <mxPoint x="1430" y="190" />
            </Array>
          </mxGeometry>
        </mxCell>
        <mxCell id="7IlmooSSiK_K_cPt-GnD-125" style="edgeStyle=orthogonalEdgeStyle;rounded=0;orthogonalLoop=1;jettySize=auto;html=1;exitX=1;exitY=0.5;exitDx=0;exitDy=0;entryX=0;entryY=0.5;entryDx=0;entryDy=0;endArrow=none;endFill=0;" edge="1" parent="1" source="7IlmooSSiK_K_cPt-GnD-2" target="7IlmooSSiK_K_cPt-GnD-124">
          <mxGeometry relative="1" as="geometry" />
        </mxCell>
        <mxCell id="7IlmooSSiK_K_cPt-GnD-2" value="Employee" style="rounded=0;whiteSpace=wrap;html=1;fillColor=#dae8fc;strokeColor=#6c8ebf;gradientColor=#7ea6e0;" vertex="1" parent="1">
          <mxGeometry x="1170" y="-340" width="120" height="60" as="geometry" />
        </mxCell>
        <mxCell id="7IlmooSSiK_K_cPt-GnD-3" value="Department" style="rounded=0;whiteSpace=wrap;html=1;fillColor=#dae8fc;gradientColor=#7ea6e0;strokeColor=#6c8ebf;" vertex="1" parent="1">
          <mxGeometry x="220" y="-340" width="120" height="60" as="geometry" />
        </mxCell>
        <mxCell id="7IlmooSSiK_K_cPt-GnD-4" value="Payroll" style="rounded=0;whiteSpace=wrap;html=1;fillColor=#dae8fc;gradientColor=#7ea6e0;strokeColor=#6c8ebf;" vertex="1" parent="1">
          <mxGeometry x="1990" y="-340" width="120" height="60" as="geometry" />
        </mxCell>
        <mxCell id="7IlmooSSiK_K_cPt-GnD-8" value="User Role&amp;nbsp;" style="rounded=0;whiteSpace=wrap;html=1;fillColor=#dae8fc;gradientColor=#7ea6e0;strokeColor=#6c8ebf;" vertex="1" parent="1">
          <mxGeometry x="1920" y="420" width="120" height="60" as="geometry" />
        </mxCell>
        <mxCell id="7IlmooSSiK_K_cPt-GnD-9" value="Job" style="rounded=0;whiteSpace=wrap;html=1;fillColor=#dae8fc;gradientColor=#7ea6e0;strokeColor=#6c8ebf;" vertex="1" parent="1">
          <mxGeometry x="365" y="380" width="120" height="60" as="geometry" />
        </mxCell>
        <mxCell id="7IlmooSSiK_K_cPt-GnD-10" value="Attendance" style="rounded=0;whiteSpace=wrap;html=1;fillColor=#dae8fc;gradientColor=#7ea6e0;strokeColor=#6c8ebf;" vertex="1" parent="1">
          <mxGeometry x="1150" y="400" width="120" height="60" as="geometry" />
        </mxCell>
        <mxCell id="7IlmooSSiK_K_cPt-GnD-12" value="&lt;span style=&quot;text-wrap-mode: nowrap;&quot;&gt;Email&lt;/span&gt;" style="ellipse;whiteSpace=wrap;html=1;fillColor=#fff2cc;gradientColor=#ffd966;strokeColor=#d6b656;" vertex="1" parent="1">
          <mxGeometry x="1270" y="-720" width="120" height="80" as="geometry" />
        </mxCell>
        <mxCell id="7IlmooSSiK_K_cPt-GnD-13" value="&lt;span style=&quot;text-wrap-mode: nowrap;&quot;&gt;HireDate&lt;/span&gt;" style="ellipse;whiteSpace=wrap;html=1;fillColor=#fff2cc;gradientColor=#ffd966;strokeColor=#d6b656;" vertex="1" parent="1">
          <mxGeometry x="1000" y="-710" width="120" height="80" as="geometry" />
        </mxCell>
        <mxCell id="7IlmooSSiK_K_cPt-GnD-14" value="&lt;span style=&quot;text-wrap-mode: nowrap;&quot;&gt;BirthDate&lt;/span&gt;" style="ellipse;whiteSpace=wrap;html=1;fillColor=#fff2cc;gradientColor=#ffd966;strokeColor=#d6b656;" vertex="1" parent="1">
          <mxGeometry x="1450" y="-590" width="120" height="80" as="geometry" />
        </mxCell>
        <mxCell id="7IlmooSSiK_K_cPt-GnD-15" value="&lt;span style=&quot;text-wrap-mode: nowrap;&quot;&gt;Address&lt;/span&gt;" style="ellipse;whiteSpace=wrap;html=1;fillColor=#fff2cc;gradientColor=#ffd966;strokeColor=#d6b656;" vertex="1" parent="1">
          <mxGeometry x="1130" y="-730" width="120" height="80" as="geometry" />
        </mxCell>
        <mxCell id="7IlmooSSiK_K_cPt-GnD-17" value="&lt;span style=&quot;text-wrap-mode: nowrap;&quot;&gt;&lt;u&gt;EmployeeID&amp;nbsp;&lt;/u&gt;&lt;/span&gt;" style="ellipse;whiteSpace=wrap;html=1;fillColor=#fff2cc;gradientColor=#ffd966;strokeColor=#d6b656;" vertex="1" parent="1">
          <mxGeometry x="1520" y="-490" width="120" height="80" as="geometry" />
        </mxCell>
        <mxCell id="7IlmooSSiK_K_cPt-GnD-18" value="&lt;span style=&quot;text-wrap-mode: nowrap;&quot;&gt;Phone&lt;/span&gt;" style="ellipse;whiteSpace=wrap;html=1;fillColor=#fff2cc;gradientColor=#ffd966;strokeColor=#d6b656;" vertex="1" parent="1">
          <mxGeometry x="780" y="-603" width="120" height="80" as="geometry" />
        </mxCell>
        <mxCell id="7IlmooSSiK_K_cPt-GnD-19" value="&lt;span style=&quot;text-wrap-mode: nowrap;&quot;&gt;FullName&lt;/span&gt;" style="ellipse;whiteSpace=wrap;html=1;fillColor=#fff2cc;gradientColor=#ffd966;strokeColor=#d6b656;" vertex="1" parent="1">
          <mxGeometry x="1280" y="-540" width="120" height="80" as="geometry" />
        </mxCell>
        <mxCell id="7IlmooSSiK_K_cPt-GnD-20" value="&lt;span style=&quot;text-wrap-mode: nowrap;&quot;&gt;Gender&lt;/span&gt;" style="ellipse;whiteSpace=wrap;html=1;fillColor=#fff2cc;gradientColor=#ffd966;strokeColor=#d6b656;" vertex="1" parent="1">
          <mxGeometry x="720" y="-510" width="120" height="80" as="geometry" />
        </mxCell>
        <mxCell id="7IlmooSSiK_K_cPt-GnD-22" value="&lt;span style=&quot;text-wrap-mode: nowrap;&quot;&gt;Status&lt;/span&gt;" style="ellipse;whiteSpace=wrap;html=1;fillColor=#fff2cc;gradientColor=#ffd966;strokeColor=#d6b656;" vertex="1" parent="1">
          <mxGeometry x="890" y="-650" width="120" height="80" as="geometry" />
        </mxCell>
        <mxCell id="7IlmooSSiK_K_cPt-GnD-24" value="" style="endArrow=none;html=1;rounded=0;entryX=0.248;entryY=0.963;entryDx=0;entryDy=0;exitX=0.5;exitY=0;exitDx=0;exitDy=0;entryPerimeter=0;" edge="1" parent="1" source="7IlmooSSiK_K_cPt-GnD-2" target="7IlmooSSiK_K_cPt-GnD-19">
          <mxGeometry width="50" height="50" relative="1" as="geometry">
            <mxPoint x="1300" y="-260" as="sourcePoint" />
            <mxPoint x="1350" y="-310" as="targetPoint" />
          </mxGeometry>
        </mxCell>
        <mxCell id="7IlmooSSiK_K_cPt-GnD-25" value="" style="endArrow=none;html=1;rounded=0;entryX=0;entryY=1;entryDx=0;entryDy=0;exitX=0.5;exitY=0;exitDx=0;exitDy=0;" edge="1" parent="1" target="7IlmooSSiK_K_cPt-GnD-17">
          <mxGeometry width="50" height="50" relative="1" as="geometry">
            <mxPoint x="1290" y="-327" as="sourcePoint" />
            <mxPoint x="1340" y="-430" as="targetPoint" />
          </mxGeometry>
        </mxCell>
        <mxCell id="7IlmooSSiK_K_cPt-GnD-26" value="" style="endArrow=none;html=1;rounded=0;exitX=1;exitY=0;exitDx=0;exitDy=0;" edge="1" parent="1" source="7IlmooSSiK_K_cPt-GnD-2" target="7IlmooSSiK_K_cPt-GnD-14">
          <mxGeometry width="50" height="50" relative="1" as="geometry">
            <mxPoint x="1300" y="-337" as="sourcePoint" />
            <mxPoint x="1350" y="-440" as="targetPoint" />
          </mxGeometry>
        </mxCell>
        <mxCell id="7IlmooSSiK_K_cPt-GnD-28" value="" style="endArrow=none;html=1;rounded=0;exitX=0.5;exitY=0;exitDx=0;exitDy=0;" edge="1" parent="1" source="7IlmooSSiK_K_cPt-GnD-2" target="7IlmooSSiK_K_cPt-GnD-12">
          <mxGeometry width="50" height="50" relative="1" as="geometry">
            <mxPoint x="1200" y="-340" as="sourcePoint" />
            <mxPoint x="1260" y="-400" as="targetPoint" />
          </mxGeometry>
        </mxCell>
        <mxCell id="7IlmooSSiK_K_cPt-GnD-29" value="" style="endArrow=none;html=1;rounded=0;entryX=0.5;entryY=1;entryDx=0;entryDy=0;exitX=0.5;exitY=0;exitDx=0;exitDy=0;" edge="1" parent="1" source="7IlmooSSiK_K_cPt-GnD-2" target="7IlmooSSiK_K_cPt-GnD-15">
          <mxGeometry width="50" height="50" relative="1" as="geometry">
            <mxPoint x="1230" y="13" as="sourcePoint" />
            <mxPoint x="1280" y="-90" as="targetPoint" />
          </mxGeometry>
        </mxCell>
        <mxCell id="7IlmooSSiK_K_cPt-GnD-30" value="" style="endArrow=none;html=1;rounded=0;entryX=0.5;entryY=1;entryDx=0;entryDy=0;exitX=0.5;exitY=0;exitDx=0;exitDy=0;" edge="1" parent="1" source="7IlmooSSiK_K_cPt-GnD-2" target="7IlmooSSiK_K_cPt-GnD-13">
          <mxGeometry width="50" height="50" relative="1" as="geometry">
            <mxPoint x="1230" y="-350" as="sourcePoint" />
            <mxPoint x="1290" y="-80" as="targetPoint" />
          </mxGeometry>
        </mxCell>
        <mxCell id="7IlmooSSiK_K_cPt-GnD-31" value="" style="endArrow=none;html=1;rounded=0;entryX=0.5;entryY=0;entryDx=0;entryDy=0;exitX=1;exitY=1;exitDx=0;exitDy=0;" edge="1" parent="1" source="7IlmooSSiK_K_cPt-GnD-22" target="7IlmooSSiK_K_cPt-GnD-2">
          <mxGeometry width="50" height="50" relative="1" as="geometry">
            <mxPoint x="1120" y="-147" as="sourcePoint" />
            <mxPoint x="1170" y="-250" as="targetPoint" />
          </mxGeometry>
        </mxCell>
        <mxCell id="7IlmooSSiK_K_cPt-GnD-33" value="" style="endArrow=none;html=1;rounded=0;entryX=0.5;entryY=0;entryDx=0;entryDy=0;exitX=1;exitY=1;exitDx=0;exitDy=0;" edge="1" parent="1" source="7IlmooSSiK_K_cPt-GnD-18" target="7IlmooSSiK_K_cPt-GnD-2">
          <mxGeometry width="50" height="50" relative="1" as="geometry">
            <mxPoint x="1160" y="-97" as="sourcePoint" />
            <mxPoint x="1210" y="-200" as="targetPoint" />
          </mxGeometry>
        </mxCell>
        <mxCell id="7IlmooSSiK_K_cPt-GnD-34" value="" style="endArrow=none;html=1;rounded=0;entryX=0;entryY=0;entryDx=0;entryDy=0;exitX=0.95;exitY=0.713;exitDx=0;exitDy=0;exitPerimeter=0;" edge="1" parent="1" source="7IlmooSSiK_K_cPt-GnD-20" target="7IlmooSSiK_K_cPt-GnD-2">
          <mxGeometry width="50" height="50" relative="1" as="geometry">
            <mxPoint x="1150" y="-17" as="sourcePoint" />
            <mxPoint x="1200" y="-120" as="targetPoint" />
          </mxGeometry>
        </mxCell>
        <mxCell id="7IlmooSSiK_K_cPt-GnD-36" value="&lt;span style=&quot;text-align: left;&quot;&gt;&lt;u&gt;JobID&amp;nbsp;&lt;/u&gt;&lt;/span&gt;" style="ellipse;whiteSpace=wrap;html=1;fillColor=#fff2cc;gradientColor=#ffd966;strokeColor=#d6b656;" vertex="1" parent="1">
          <mxGeometry x="525" y="540" width="120" height="80" as="geometry" />
        </mxCell>
        <mxCell id="7IlmooSSiK_K_cPt-GnD-37" value="&lt;span style=&quot;text-align: left;&quot;&gt;JobTitle&lt;/span&gt;" style="ellipse;whiteSpace=wrap;html=1;fillColor=#fff2cc;gradientColor=#ffd966;strokeColor=#d6b656;" vertex="1" parent="1">
          <mxGeometry x="385" y="590" width="120" height="80" as="geometry" />
        </mxCell>
        <mxCell id="7IlmooSSiK_K_cPt-GnD-38" value="&lt;span style=&quot;text-align: left;&quot;&gt;JobDescription&lt;/span&gt;" style="ellipse;whiteSpace=wrap;html=1;fillColor=#fff2cc;gradientColor=#ffd966;strokeColor=#d6b656;" vertex="1" parent="1">
          <mxGeometry x="245" y="580" width="120" height="80" as="geometry" />
        </mxCell>
        <mxCell id="7IlmooSSiK_K_cPt-GnD-39" value="&lt;span style=&quot;text-align: left;&quot;&gt;SalaryGrade&lt;/span&gt;" style="ellipse;whiteSpace=wrap;html=1;fillColor=#fff2cc;gradientColor=#ffd966;strokeColor=#d6b656;" vertex="1" parent="1">
          <mxGeometry x="175" y="490" width="120" height="80" as="geometry" />
        </mxCell>
        <mxCell id="7IlmooSSiK_K_cPt-GnD-41" value="" style="endArrow=none;html=1;rounded=0;entryX=0.75;entryY=1;entryDx=0;entryDy=0;exitX=0;exitY=0;exitDx=0;exitDy=0;" edge="1" parent="1" source="7IlmooSSiK_K_cPt-GnD-36" target="7IlmooSSiK_K_cPt-GnD-9">
          <mxGeometry width="50" height="50" relative="1" as="geometry">
            <mxPoint x="685" y="550" as="sourcePoint" />
            <mxPoint x="735" y="500" as="targetPoint" />
          </mxGeometry>
        </mxCell>
        <mxCell id="7IlmooSSiK_K_cPt-GnD-43" value="" style="endArrow=none;html=1;rounded=0;exitX=0.5;exitY=0;exitDx=0;exitDy=0;entryX=0.5;entryY=1;entryDx=0;entryDy=0;" edge="1" parent="1" source="7IlmooSSiK_K_cPt-GnD-37" target="7IlmooSSiK_K_cPt-GnD-9">
          <mxGeometry width="50" height="50" relative="1" as="geometry">
            <mxPoint x="435" y="580" as="sourcePoint" />
            <mxPoint x="485" y="530" as="targetPoint" />
          </mxGeometry>
        </mxCell>
        <mxCell id="7IlmooSSiK_K_cPt-GnD-44" value="" style="endArrow=none;html=1;rounded=0;entryX=0.25;entryY=1;entryDx=0;entryDy=0;exitX=1;exitY=0;exitDx=0;exitDy=0;" edge="1" parent="1" source="7IlmooSSiK_K_cPt-GnD-38" target="7IlmooSSiK_K_cPt-GnD-9">
          <mxGeometry width="50" height="50" relative="1" as="geometry">
            <mxPoint x="365" y="540" as="sourcePoint" />
            <mxPoint x="415" y="490" as="targetPoint" />
          </mxGeometry>
        </mxCell>
        <mxCell id="7IlmooSSiK_K_cPt-GnD-45" value="" style="endArrow=none;html=1;rounded=0;entryX=0;entryY=1;entryDx=0;entryDy=0;exitX=1;exitY=0;exitDx=0;exitDy=0;" edge="1" parent="1" source="7IlmooSSiK_K_cPt-GnD-39" target="7IlmooSSiK_K_cPt-GnD-9">
          <mxGeometry width="50" height="50" relative="1" as="geometry">
            <mxPoint x="265" y="450" as="sourcePoint" />
            <mxPoint x="315" y="400" as="targetPoint" />
          </mxGeometry>
        </mxCell>
        <mxCell id="7IlmooSSiK_K_cPt-GnD-48" value="&lt;span style=&quot;text-align: left;&quot;&gt;Location&lt;/span&gt;" style="ellipse;whiteSpace=wrap;html=1;fillColor=#fff2cc;gradientColor=#ffd966;strokeColor=#d6b656;" vertex="1" parent="1">
          <mxGeometry x="400" y="-540" width="120" height="80" as="geometry" />
        </mxCell>
        <mxCell id="7IlmooSSiK_K_cPt-GnD-49" value="&lt;span style=&quot;text-align: left;&quot;&gt;DepartmentName&lt;/span&gt;" style="ellipse;whiteSpace=wrap;html=1;fillColor=#fff2cc;gradientColor=#ffd966;strokeColor=#d6b656;" vertex="1" parent="1">
          <mxGeometry x="210" y="-560" width="120" height="80" as="geometry" />
        </mxCell>
        <mxCell id="7IlmooSSiK_K_cPt-GnD-50" value="&lt;span style=&quot;text-align: left;&quot;&gt;&lt;u&gt;DepartmentID&amp;nbsp;&lt;/u&gt;&lt;/span&gt;" style="ellipse;whiteSpace=wrap;html=1;fillColor=#fff2cc;gradientColor=#ffd966;strokeColor=#d6b656;" vertex="1" parent="1">
          <mxGeometry x="20" y="-523" width="120" height="80" as="geometry" />
        </mxCell>
        <mxCell id="7IlmooSSiK_K_cPt-GnD-51" value="" style="endArrow=none;html=1;rounded=0;entryX=0.299;entryY=0.919;entryDx=0;entryDy=0;entryPerimeter=0;exitX=1;exitY=0;exitDx=0;exitDy=0;" edge="1" parent="1" source="7IlmooSSiK_K_cPt-GnD-3" target="7IlmooSSiK_K_cPt-GnD-48">
          <mxGeometry width="50" height="50" relative="1" as="geometry">
            <mxPoint x="410" y="-310" as="sourcePoint" />
            <mxPoint x="460" y="-360" as="targetPoint" />
          </mxGeometry>
        </mxCell>
        <mxCell id="7IlmooSSiK_K_cPt-GnD-52" value="" style="endArrow=none;html=1;rounded=0;entryX=1;entryY=1;entryDx=0;entryDy=0;exitX=0;exitY=0;exitDx=0;exitDy=0;" edge="1" parent="1" source="7IlmooSSiK_K_cPt-GnD-3" target="7IlmooSSiK_K_cPt-GnD-50">
          <mxGeometry width="50" height="50" relative="1" as="geometry">
            <mxPoint x="240" y="-350" as="sourcePoint" />
            <mxPoint x="290" y="-400" as="targetPoint" />
          </mxGeometry>
        </mxCell>
        <mxCell id="7IlmooSSiK_K_cPt-GnD-53" value="" style="endArrow=none;html=1;rounded=0;entryX=0.5;entryY=1;entryDx=0;entryDy=0;exitX=0.5;exitY=0;exitDx=0;exitDy=0;" edge="1" parent="1" source="7IlmooSSiK_K_cPt-GnD-3" target="7IlmooSSiK_K_cPt-GnD-49">
          <mxGeometry width="50" height="50" relative="1" as="geometry">
            <mxPoint x="290" y="-350" as="sourcePoint" />
            <mxPoint x="340" y="-400" as="targetPoint" />
          </mxGeometry>
        </mxCell>
        <mxCell id="7IlmooSSiK_K_cPt-GnD-57" value="&lt;span style=&quot;text-align: left;&quot;&gt;CheckIn&lt;/span&gt;" style="ellipse;whiteSpace=wrap;html=1;fillColor=#fff2cc;gradientColor=#ffd966;strokeColor=#d6b656;" vertex="1" parent="1">
          <mxGeometry x="1185" y="630" width="120" height="80" as="geometry" />
        </mxCell>
        <mxCell id="7IlmooSSiK_K_cPt-GnD-58" value="&lt;span style=&quot;text-align: left;&quot;&gt;Date&lt;/span&gt;" style="ellipse;whiteSpace=wrap;html=1;fillColor=#fff2cc;gradientColor=#ffd966;strokeColor=#d6b656;" vertex="1" parent="1">
          <mxGeometry x="1045" y="620" width="120" height="80" as="geometry" />
        </mxCell>
        <mxCell id="7IlmooSSiK_K_cPt-GnD-59" value="&lt;span style=&quot;text-align: left;&quot;&gt;&lt;u&gt;RecordID&amp;nbsp;&lt;/u&gt;&lt;/span&gt;" style="ellipse;whiteSpace=wrap;html=1;fillColor=#fff2cc;gradientColor=#ffd966;strokeColor=#d6b656;" vertex="1" parent="1">
          <mxGeometry x="975" y="530" width="120" height="80" as="geometry" />
        </mxCell>
        <mxCell id="7IlmooSSiK_K_cPt-GnD-60" value="&lt;span style=&quot;text-align: left;&quot;&gt;HoursWorked&lt;/span&gt;" style="ellipse;whiteSpace=wrap;html=1;fillColor=#fff2cc;gradientColor=#ffd966;strokeColor=#d6b656;" vertex="1" parent="1">
          <mxGeometry x="1410" y="530" width="120" height="80" as="geometry" />
        </mxCell>
        <mxCell id="7IlmooSSiK_K_cPt-GnD-61" value="" style="endArrow=none;html=1;rounded=0;entryX=0;entryY=1;entryDx=0;entryDy=0;" edge="1" parent="1" target="7IlmooSSiK_K_cPt-GnD-10">
          <mxGeometry width="50" height="50" relative="1" as="geometry">
            <mxPoint x="1070" y="540" as="sourcePoint" />
            <mxPoint x="1120" y="490" as="targetPoint" />
          </mxGeometry>
        </mxCell>
        <mxCell id="7IlmooSSiK_K_cPt-GnD-62" value="" style="endArrow=none;html=1;rounded=0;entryX=0.358;entryY=1.033;entryDx=0;entryDy=0;entryPerimeter=0;" edge="1" parent="1" source="7IlmooSSiK_K_cPt-GnD-58" target="7IlmooSSiK_K_cPt-GnD-10">
          <mxGeometry width="50" height="50" relative="1" as="geometry">
            <mxPoint x="1160" y="650" as="sourcePoint" />
            <mxPoint x="1240" y="570" as="targetPoint" />
          </mxGeometry>
        </mxCell>
        <mxCell id="7IlmooSSiK_K_cPt-GnD-63" value="" style="endArrow=none;html=1;rounded=0;entryX=0.5;entryY=1;entryDx=0;entryDy=0;exitX=0.5;exitY=0;exitDx=0;exitDy=0;" edge="1" parent="1" source="7IlmooSSiK_K_cPt-GnD-57" target="7IlmooSSiK_K_cPt-GnD-10">
          <mxGeometry width="50" height="50" relative="1" as="geometry">
            <mxPoint x="1220" y="600" as="sourcePoint" />
            <mxPoint x="1300" y="520" as="targetPoint" />
          </mxGeometry>
        </mxCell>
        <mxCell id="7IlmooSSiK_K_cPt-GnD-64" value="" style="endArrow=none;html=1;rounded=0;entryX=1;entryY=1;entryDx=0;entryDy=0;exitX=0;exitY=0;exitDx=0;exitDy=0;" edge="1" parent="1" source="7IlmooSSiK_K_cPt-GnD-60" target="7IlmooSSiK_K_cPt-GnD-10">
          <mxGeometry width="50" height="50" relative="1" as="geometry">
            <mxPoint x="1270" y="630" as="sourcePoint" />
            <mxPoint x="1350" y="550" as="targetPoint" />
          </mxGeometry>
        </mxCell>
        <mxCell id="7IlmooSSiK_K_cPt-GnD-72" value="&lt;span style=&quot;text-align: left;&quot;&gt;NetPay&lt;/span&gt;" style="ellipse;whiteSpace=wrap;html=1;fillColor=#fff2cc;gradientColor=#ffd966;strokeColor=#d6b656;" vertex="1" parent="1">
          <mxGeometry x="2210" y="-340" width="120" height="80" as="geometry" />
        </mxCell>
        <mxCell id="7IlmooSSiK_K_cPt-GnD-73" value="&lt;span style=&quot;text-align: left;&quot;&gt;Bonus&lt;/span&gt;" style="ellipse;whiteSpace=wrap;html=1;fillColor=#fff2cc;gradientColor=#ffd966;strokeColor=#d6b656;" vertex="1" parent="1">
          <mxGeometry x="2120" y="-560" width="120" height="80" as="geometry" />
        </mxCell>
        <mxCell id="7IlmooSSiK_K_cPt-GnD-74" value="&lt;span style=&quot;text-align: left;&quot;&gt;Month&lt;/span&gt;" style="ellipse;whiteSpace=wrap;html=1;fillColor=#fff2cc;gradientColor=#ffd966;strokeColor=#d6b656;" vertex="1" parent="1">
          <mxGeometry x="1710" y="-500" width="120" height="80" as="geometry" />
        </mxCell>
        <mxCell id="7IlmooSSiK_K_cPt-GnD-75" value="&lt;span style=&quot;text-align: left;&quot;&gt;Deductions&lt;/span&gt;" style="ellipse;whiteSpace=wrap;html=1;fillColor=#fff2cc;gradientColor=#ffd966;strokeColor=#d6b656;" vertex="1" parent="1">
          <mxGeometry x="2190" y="-443" width="120" height="80" as="geometry" />
        </mxCell>
        <mxCell id="7IlmooSSiK_K_cPt-GnD-76" value="&lt;span style=&quot;text-align: left;&quot;&gt;BaseSalary&lt;/span&gt;" style="ellipse;whiteSpace=wrap;html=1;fillColor=#fff2cc;gradientColor=#ffd966;strokeColor=#d6b656;" vertex="1" parent="1">
          <mxGeometry x="1960" y="-620" width="120" height="80" as="geometry" />
        </mxCell>
        <mxCell id="7IlmooSSiK_K_cPt-GnD-77" value="&lt;span style=&quot;text-align: left;&quot;&gt;&lt;u&gt;PayrollID&amp;nbsp;&lt;/u&gt;&lt;/span&gt;" style="ellipse;whiteSpace=wrap;html=1;fillColor=#fff2cc;gradientColor=#ffd966;strokeColor=#d6b656;" vertex="1" parent="1">
          <mxGeometry x="1830" y="-550" width="120" height="80" as="geometry" />
        </mxCell>
        <mxCell id="7IlmooSSiK_K_cPt-GnD-79" value="&lt;span style=&quot;text-align: left;&quot;&gt;Permissions&lt;/span&gt;" style="ellipse;whiteSpace=wrap;html=1;fillColor=#fff2cc;gradientColor=#ffd966;strokeColor=#d6b656;" vertex="1" parent="1">
          <mxGeometry x="2110" y="540" width="120" height="80" as="geometry" />
        </mxCell>
        <mxCell id="7IlmooSSiK_K_cPt-GnD-80" value="&lt;span style=&quot;text-align: left;&quot;&gt;RoleName&lt;/span&gt;" style="ellipse;whiteSpace=wrap;html=1;fillColor=#fff2cc;gradientColor=#ffd966;strokeColor=#d6b656;" vertex="1" parent="1">
          <mxGeometry x="1960" y="590" width="120" height="80" as="geometry" />
        </mxCell>
        <mxCell id="7IlmooSSiK_K_cPt-GnD-81" value="&lt;span style=&quot;text-align: left;&quot;&gt;&lt;u&gt;RoleID&amp;nbsp;&lt;/u&gt;&lt;/span&gt;" style="ellipse;whiteSpace=wrap;html=1;fillColor=#fff2cc;gradientColor=#ffd966;strokeColor=#d6b656;" vertex="1" parent="1">
          <mxGeometry x="1790" y="560" width="120" height="80" as="geometry" />
        </mxCell>
        <mxCell id="7IlmooSSiK_K_cPt-GnD-83" value="" style="endArrow=none;html=1;rounded=0;entryX=0;entryY=1;entryDx=0;entryDy=0;exitX=0.5;exitY=0;exitDx=0;exitDy=0;" edge="1" parent="1" source="7IlmooSSiK_K_cPt-GnD-81" target="7IlmooSSiK_K_cPt-GnD-8">
          <mxGeometry width="50" height="50" relative="1" as="geometry">
            <mxPoint x="1830" y="540" as="sourcePoint" />
            <mxPoint x="1880" y="490" as="targetPoint" />
          </mxGeometry>
        </mxCell>
        <mxCell id="7IlmooSSiK_K_cPt-GnD-84" value="" style="endArrow=none;html=1;rounded=0;entryX=0.5;entryY=1;entryDx=0;entryDy=0;exitX=0.5;exitY=0;exitDx=0;exitDy=0;" edge="1" parent="1" source="7IlmooSSiK_K_cPt-GnD-80" target="7IlmooSSiK_K_cPt-GnD-8">
          <mxGeometry width="50" height="50" relative="1" as="geometry">
            <mxPoint x="2010" y="590" as="sourcePoint" />
            <mxPoint x="2060" y="540" as="targetPoint" />
          </mxGeometry>
        </mxCell>
        <mxCell id="7IlmooSSiK_K_cPt-GnD-85" value="" style="endArrow=none;html=1;rounded=0;entryX=1;entryY=1;entryDx=0;entryDy=0;exitX=0;exitY=0;exitDx=0;exitDy=0;" edge="1" parent="1" source="7IlmooSSiK_K_cPt-GnD-79" target="7IlmooSSiK_K_cPt-GnD-8">
          <mxGeometry width="50" height="50" relative="1" as="geometry">
            <mxPoint x="2150" y="530" as="sourcePoint" />
            <mxPoint x="2200" y="480" as="targetPoint" />
          </mxGeometry>
        </mxCell>
        <mxCell id="7IlmooSSiK_K_cPt-GnD-86" value="" style="endArrow=none;html=1;rounded=0;exitX=0.75;exitY=0;exitDx=0;exitDy=0;entryX=0;entryY=1;entryDx=0;entryDy=0;" edge="1" parent="1" source="7IlmooSSiK_K_cPt-GnD-4" target="7IlmooSSiK_K_cPt-GnD-73">
          <mxGeometry width="50" height="50" relative="1" as="geometry">
            <mxPoint x="2100" y="-430" as="sourcePoint" />
            <mxPoint x="2160" y="-470" as="targetPoint" />
          </mxGeometry>
        </mxCell>
        <mxCell id="7IlmooSSiK_K_cPt-GnD-87" value="" style="endArrow=none;html=1;rounded=0;entryX=0.5;entryY=1;entryDx=0;entryDy=0;exitX=0.5;exitY=0;exitDx=0;exitDy=0;" edge="1" parent="1" source="7IlmooSSiK_K_cPt-GnD-4" target="7IlmooSSiK_K_cPt-GnD-76">
          <mxGeometry width="50" height="50" relative="1" as="geometry">
            <mxPoint x="1980" y="-460" as="sourcePoint" />
            <mxPoint x="2030" y="-510" as="targetPoint" />
          </mxGeometry>
        </mxCell>
        <mxCell id="7IlmooSSiK_K_cPt-GnD-88" value="" style="endArrow=none;html=1;rounded=0;entryX=1;entryY=1;entryDx=0;entryDy=0;exitX=0.25;exitY=0;exitDx=0;exitDy=0;" edge="1" parent="1" source="7IlmooSSiK_K_cPt-GnD-4" target="7IlmooSSiK_K_cPt-GnD-77">
          <mxGeometry width="50" height="50" relative="1" as="geometry">
            <mxPoint x="1970" y="-330" as="sourcePoint" />
            <mxPoint x="2020" y="-380" as="targetPoint" />
          </mxGeometry>
        </mxCell>
        <mxCell id="7IlmooSSiK_K_cPt-GnD-89" value="" style="endArrow=none;html=1;rounded=0;entryX=0;entryY=1;entryDx=0;entryDy=0;exitX=1;exitY=0;exitDx=0;exitDy=0;" edge="1" parent="1" source="7IlmooSSiK_K_cPt-GnD-4" target="7IlmooSSiK_K_cPt-GnD-75">
          <mxGeometry width="50" height="50" relative="1" as="geometry">
            <mxPoint x="2150" y="-300" as="sourcePoint" />
            <mxPoint x="2200" y="-350" as="targetPoint" />
          </mxGeometry>
        </mxCell>
        <mxCell id="7IlmooSSiK_K_cPt-GnD-90" value="" style="endArrow=none;html=1;rounded=0;entryX=0;entryY=0.5;entryDx=0;entryDy=0;exitX=1;exitY=0.5;exitDx=0;exitDy=0;" edge="1" parent="1" source="7IlmooSSiK_K_cPt-GnD-4" target="7IlmooSSiK_K_cPt-GnD-72">
          <mxGeometry width="50" height="50" relative="1" as="geometry">
            <mxPoint x="2160" y="-230" as="sourcePoint" />
            <mxPoint x="2210" y="-280" as="targetPoint" />
          </mxGeometry>
        </mxCell>
        <mxCell id="7IlmooSSiK_K_cPt-GnD-91" value="" style="endArrow=none;html=1;rounded=0;entryX=0;entryY=0;entryDx=0;entryDy=0;exitX=0.988;exitY=0.657;exitDx=0;exitDy=0;exitPerimeter=0;" edge="1" parent="1" source="7IlmooSSiK_K_cPt-GnD-74" target="7IlmooSSiK_K_cPt-GnD-4">
          <mxGeometry width="50" height="50" relative="1" as="geometry">
            <mxPoint x="1920" y="-200" as="sourcePoint" />
            <mxPoint x="1970" y="-250" as="targetPoint" />
          </mxGeometry>
        </mxCell>
        <mxCell id="7IlmooSSiK_K_cPt-GnD-92" value="&lt;span style=&quot;text-align: left;&quot;&gt;CheckOut&lt;/span&gt;" style="ellipse;whiteSpace=wrap;html=1;fillColor=#fff2cc;gradientColor=#ffd966;strokeColor=#d6b656;" vertex="1" parent="1">
          <mxGeometry x="1340" y="620" width="120" height="80" as="geometry" />
        </mxCell>
        <mxCell id="7IlmooSSiK_K_cPt-GnD-94" value="" style="endArrow=none;html=1;rounded=0;entryX=0.75;entryY=1;entryDx=0;entryDy=0;exitX=0;exitY=0;exitDx=0;exitDy=0;" edge="1" parent="1" source="7IlmooSSiK_K_cPt-GnD-92" target="7IlmooSSiK_K_cPt-GnD-10">
          <mxGeometry width="50" height="50" relative="1" as="geometry">
            <mxPoint x="1280" y="555" as="sourcePoint" />
            <mxPoint x="1330" y="505" as="targetPoint" />
          </mxGeometry>
        </mxCell>
        <mxCell id="7IlmooSSiK_K_cPt-GnD-100" style="edgeStyle=orthogonalEdgeStyle;rounded=0;orthogonalLoop=1;jettySize=auto;html=1;entryX=0;entryY=0.5;entryDx=0;entryDy=0;endArrow=none;endFill=0;shape=link;" edge="1" parent="1" source="7IlmooSSiK_K_cPt-GnD-95" target="7IlmooSSiK_K_cPt-GnD-2">
          <mxGeometry relative="1" as="geometry" />
        </mxCell>
        <mxCell id="7IlmooSSiK_K_cPt-GnD-101" style="edgeStyle=orthogonalEdgeStyle;rounded=0;orthogonalLoop=1;jettySize=auto;html=1;entryX=1;entryY=0.5;entryDx=0;entryDy=0;endArrow=none;endFill=0;" edge="1" parent="1" source="7IlmooSSiK_K_cPt-GnD-95" target="7IlmooSSiK_K_cPt-GnD-3">
          <mxGeometry relative="1" as="geometry" />
        </mxCell>
        <mxCell id="7IlmooSSiK_K_cPt-GnD-95" value="Work" style="rhombus;whiteSpace=wrap;html=1;fillColor=#e6d0de;gradientColor=#d5739d;strokeColor=#996185;" vertex="1" parent="1">
          <mxGeometry x="680" y="-350" width="170" height="80" as="geometry" />
        </mxCell>
        <mxCell id="7IlmooSSiK_K_cPt-GnD-102" value="1" style="text;html=1;align=center;verticalAlign=middle;resizable=0;points=[];autosize=1;strokeColor=none;fillColor=none;" vertex="1" parent="1">
          <mxGeometry x="335" y="-310" width="30" height="30" as="geometry" />
        </mxCell>
        <mxCell id="7IlmooSSiK_K_cPt-GnD-103" value="M" style="text;html=1;align=center;verticalAlign=middle;resizable=0;points=[];autosize=1;strokeColor=none;fillColor=none;" vertex="1" parent="1">
          <mxGeometry x="1110" y="-350" width="30" height="30" as="geometry" />
        </mxCell>
        <mxCell id="7IlmooSSiK_K_cPt-GnD-106" style="edgeStyle=orthogonalEdgeStyle;rounded=0;orthogonalLoop=1;jettySize=auto;html=1;exitX=0;exitY=0.5;exitDx=0;exitDy=0;entryX=0.5;entryY=0;entryDx=0;entryDy=0;endArrow=none;endFill=0;" edge="1" parent="1" source="7IlmooSSiK_K_cPt-GnD-104" target="7IlmooSSiK_K_cPt-GnD-9">
          <mxGeometry relative="1" as="geometry" />
        </mxCell>
        <mxCell id="7IlmooSSiK_K_cPt-GnD-104" value="Have" style="rhombus;whiteSpace=wrap;html=1;fillColor=#e6d0de;gradientColor=#d5739d;strokeColor=#996185;" vertex="1" parent="1">
          <mxGeometry x="700" y="20" width="170" height="80" as="geometry" />
        </mxCell>
        <mxCell id="7IlmooSSiK_K_cPt-GnD-107" value="1" style="text;html=1;align=center;verticalAlign=middle;resizable=0;points=[];autosize=1;strokeColor=none;fillColor=none;" vertex="1" parent="1">
          <mxGeometry x="430" y="350" width="30" height="30" as="geometry" />
        </mxCell>
        <mxCell id="7IlmooSSiK_K_cPt-GnD-109" value="M" style="text;html=1;align=center;verticalAlign=middle;resizable=0;points=[];autosize=1;strokeColor=none;fillColor=none;" vertex="1" parent="1">
          <mxGeometry x="1230" y="-250" width="30" height="30" as="geometry" />
        </mxCell>
        <mxCell id="7IlmooSSiK_K_cPt-GnD-112" style="edgeStyle=orthogonalEdgeStyle;rounded=0;orthogonalLoop=1;jettySize=auto;html=1;exitX=0;exitY=0.5;exitDx=0;exitDy=0;entryX=0.5;entryY=1;entryDx=0;entryDy=0;shape=link;" edge="1" parent="1" source="7IlmooSSiK_K_cPt-GnD-110" target="7IlmooSSiK_K_cPt-GnD-3">
          <mxGeometry relative="1" as="geometry" />
        </mxCell>
        <mxCell id="7IlmooSSiK_K_cPt-GnD-110" value="Manage" style="rhombus;whiteSpace=wrap;html=1;fillColor=#e6d0de;gradientColor=#d5739d;strokeColor=#996185;" vertex="1" parent="1">
          <mxGeometry x="680" y="-200" width="170" height="80" as="geometry" />
        </mxCell>
        <mxCell id="7IlmooSSiK_K_cPt-GnD-111" style="edgeStyle=orthogonalEdgeStyle;rounded=0;orthogonalLoop=1;jettySize=auto;html=1;exitX=1;exitY=0.5;exitDx=0;exitDy=0;entryX=0.117;entryY=0.938;entryDx=0;entryDy=0;entryPerimeter=0;endArrow=none;endFill=0;" edge="1" parent="1" source="7IlmooSSiK_K_cPt-GnD-110" target="7IlmooSSiK_K_cPt-GnD-2">
          <mxGeometry relative="1" as="geometry" />
        </mxCell>
        <mxCell id="7IlmooSSiK_K_cPt-GnD-113" value="1" style="text;html=1;align=center;verticalAlign=middle;resizable=0;points=[];autosize=1;strokeColor=none;fillColor=none;" vertex="1" parent="1">
          <mxGeometry x="1145" y="-280" width="30" height="30" as="geometry" />
        </mxCell>
        <mxCell id="7IlmooSSiK_K_cPt-GnD-114" value="1" style="text;html=1;align=center;verticalAlign=middle;resizable=0;points=[];autosize=1;strokeColor=none;fillColor=none;" vertex="1" parent="1">
          <mxGeometry x="285" y="-272" width="30" height="30" as="geometry" />
        </mxCell>
        <mxCell id="7IlmooSSiK_K_cPt-GnD-120" style="edgeStyle=orthogonalEdgeStyle;rounded=0;orthogonalLoop=1;jettySize=auto;html=1;exitX=0;exitY=0.5;exitDx=0;exitDy=0;entryX=0.5;entryY=0;entryDx=0;entryDy=0;shape=link;" edge="1" parent="1" source="7IlmooSSiK_K_cPt-GnD-118" target="7IlmooSSiK_K_cPt-GnD-10">
          <mxGeometry relative="1" as="geometry" />
        </mxCell>
        <mxCell id="7IlmooSSiK_K_cPt-GnD-118" value="Record" style="rhombus;whiteSpace=wrap;html=1;fillColor=#e6d0de;gradientColor=#d5739d;strokeColor=#996185;" vertex="1" parent="1">
          <mxGeometry x="1240" y="150" width="170" height="80" as="geometry" />
        </mxCell>
        <mxCell id="7IlmooSSiK_K_cPt-GnD-122" value="M" style="text;html=1;align=center;verticalAlign=middle;resizable=0;points=[];autosize=1;strokeColor=none;fillColor=none;" vertex="1" parent="1">
          <mxGeometry x="1215" y="368" width="30" height="30" as="geometry" />
        </mxCell>
        <mxCell id="7IlmooSSiK_K_cPt-GnD-123" value="1" style="text;html=1;align=center;verticalAlign=middle;resizable=0;points=[];autosize=1;strokeColor=none;fillColor=none;" vertex="1" parent="1">
          <mxGeometry x="1290" y="-280" width="30" height="30" as="geometry" />
        </mxCell>
        <mxCell id="7IlmooSSiK_K_cPt-GnD-126" style="edgeStyle=orthogonalEdgeStyle;rounded=0;orthogonalLoop=1;jettySize=auto;html=1;entryX=0;entryY=0.5;entryDx=0;entryDy=0;shape=link;" edge="1" parent="1" source="7IlmooSSiK_K_cPt-GnD-124" target="7IlmooSSiK_K_cPt-GnD-4">
          <mxGeometry relative="1" as="geometry" />
        </mxCell>
        <mxCell id="7IlmooSSiK_K_cPt-GnD-124" value="Record" style="rhombus;whiteSpace=wrap;html=1;fillColor=#e6d0de;gradientColor=#d5739d;strokeColor=#996185;" vertex="1" parent="1">
          <mxGeometry x="1620" y="-350" width="170" height="80" as="geometry" />
        </mxCell>
        <mxCell id="7IlmooSSiK_K_cPt-GnD-127" value="M" style="text;html=1;align=center;verticalAlign=middle;resizable=0;points=[];autosize=1;strokeColor=none;fillColor=none;" vertex="1" parent="1">
          <mxGeometry x="1960" y="-302" width="30" height="30" as="geometry" />
        </mxCell>
        <mxCell id="7IlmooSSiK_K_cPt-GnD-131" value="1" style="text;html=1;align=center;verticalAlign=middle;resizable=0;points=[];autosize=1;strokeColor=none;fillColor=none;" vertex="1" parent="1">
          <mxGeometry x="1325" y="-342" width="30" height="30" as="geometry" />
        </mxCell>
      </root>
    </mxGraphModel>
  </diagram>
</mxfile>
